<?xml version="1.0" encoding="utf-8"?>
<!-- Generator: Adobe Illustrator 24.1.0, SVG Export Plug-In . SVG Version: 6.00 Build 0)  -->
<svg version="1.1" id="Layer_1" xmlns="http://www.w3.org/2000/svg" xmlns:xlink="http://www.w3.org/1999/xlink" x="0px" y="0px"
	 viewBox="0 0 1520 2500" style="enable-background:new 0 0 1520 2500;" xml:space="preserve">
<path d="M0,0.8h948.5C960-2.6,965.7,8.3,973.2,14c90.1,87.2,169.3,185.9,239.3,290.9c98.1,147.5,177.3,308.7,230.7,479.7
	c56.2,180.7,83.2,371.2,75.7,561.2h-483.7c2.9-25.2,2.9-50.5,2.9-75.7c-5.2-179-58-354.6-141.7-510.1
	c-89.5-166.4-214.6-310.4-356.3-429.8C385.6,201.1,211.7,98.4,30.4,15.2C20.1,10.6,9.8,6.6,0,0.8z M377.7,959.3
	c162.4,305.3,324.2,610.5,486,916.4c39,73.4,78,146.9,117.1,220.9c-201.4,134.3-401.7,269.1-603.1,403.4L377.7,959.3L377.7,959.3z"
	/>
</svg>
